<svg xmlns="http://www.w3.org/2000/svg" viewBox="0 0 149.1 149.1"><defs><style>.cls-1{fill:none;}.cls-2{fill:#fff;}</style></defs><g id="Ebene_2" data-name="Ebene 2"><g id="Ebene_1-2" data-name="Ebene 1"><g id="Ebene_2-2" data-name="Ebene 2"><g id="Ebene_1-2-2" data-name="Ebene 1-2"><rect class="cls-1" width="149.1" height="149.1" rx="20"/><path class="cls-2" d="M75.38,92.12,57.24,74,74,57.24,88.3,71.56Q99.94,83.19,102.36,91a33.48,33.48,0,0,1-1,22.21l-10-2.34a19.21,19.21,0,0,0,1-13Q90.47,91.44,83.53,84ZM73.73,57,91.86,75.11,75.12,91.86,60.8,77.54q-11.62-11.62-14-19.43a33.45,33.45,0,0,1,1-22.22l10,2.35a19.21,19.21,0,0,0-.95,13q1.83,6.42,8.76,13.88ZM53.81,113.69,35.67,95.56,52.42,78.81,66.74,93.13q11.63,11.63,14.05,19.43a33.51,33.51,0,0,1-1,22.22l-10-2.35a19.21,19.21,0,0,0,1-13Q68.92,113,62,105.54ZM95.3,35.41l18.13,18.14L96.69,70.29,82.37,56Q70.75,44.35,68.31,36.54a33.54,33.54,0,0,1,1-22.21l10,2.34a19.15,19.15,0,0,0-1,13q1.81,6.44,8.76,13.89Z"/></g></g></g></g></svg>