<svg xmlns="http://www.w3.org/2000/svg" viewBox="0 0 350 493.14"><defs><style>.cls-1{fill:#1d1f2f;}</style></defs><g id="Ebene_2" data-name="Ebene 2"><g id="Ebene_1-2" data-name="Ebene 1"><g id="ArtBoard1"><path class="cls-1" d="M348.91,493.14H62.7a1.09,1.09,0,0,1,0-2.17H348.91a1.09,1.09,0,1,1,0,2.17Z"/><path class="cls-1" d="M348.91,493.14a1.08,1.08,0,0,1-1.08-1.09V57A1.09,1.09,0,1,1,350,57V492.05A1.09,1.09,0,0,1,348.91,493.14Z"/><path class="cls-1" d="M287.3,2.17H1.09A1.09,1.09,0,1,1,1.09,0H287.3a1.09,1.09,0,0,1,0,2.17Z"/><path class="cls-1" d="M1.09,437.25A1.09,1.09,0,0,1,0,436.16V1.09a1.09,1.09,0,0,1,2.18,0V436.16A1.09,1.09,0,0,1,1.09,437.25Z"/><path class="cls-1" d="M342.88,43.23a1.09,1.09,0,0,1-1.09-1.09V19.68H331.4a1.08,1.08,0,0,1-1.08-1.08V8.21H307.86a1.09,1.09,0,1,1,0-2.17h22.46V2.17H313.89a1.09,1.09,0,0,1,0-2.17h35A1.09,1.09,0,0,1,350,1.09v35a1.09,1.09,0,0,1-2.17,0V19.68H344V42.14A1.09,1.09,0,0,1,342.88,43.23ZM344,17.51h3.86V2.17H332.49V6h10.39A1.09,1.09,0,0,1,344,7.13Zm-11.48,0h9.3V8.21h-9.3Z"/><path class="cls-1" d="M36.11,493.14h-35A1.08,1.08,0,0,1,0,492.06V457a1.09,1.09,0,1,1,2.17,0v16.42H6V451a1.09,1.09,0,0,1,2.18,0v22.46H18.6a1.08,1.08,0,0,1,1.08,1.09v10.38H42.14a1.09,1.09,0,1,1,0,2.18H19.68V491H36.11a1.09,1.09,0,0,1,0,2.17ZM2.17,491H17.51v-3.86H7.12A1.09,1.09,0,0,1,6,486V475.63H2.17Zm6-6h9.3v-9.3H8.21Z"/></g></g></g></svg>